<?xml version="1.0" standalone="no"?>
<!DOCTYPE svg PUBLIC "-//W3C//DTD SVG 20010904//EN"
 "http://www.w3.org/TR/2001/REC-SVG-20010904/DTD/svg10.dtd">
<svg version="1.0" xmlns="http://www.w3.org/2000/svg"
 width="32" height="32" viewBox="0 0 32 32"
 preserveAspectRatio="xMidYMid meet">

<g transform="translate(0.000000,78.000000) scale(0.100000,-0.100000)"
fill="#000000" stroke="none">
<path d="M162 677 c-7 -18 -12 -35 -12 -38 0 -2 20 -5 45 -6 39 -1 45 1 45 19
0 17 2 18 15 8 10 -9 15 -9 15 -1 0 6 4 11 9 11 5 0 7 -9 4 -20 -3 -11 0 -20
6 -20 6 0 11 17 11 40 0 41 -13 53 -24 24 -6 -16 -8 -16 -24 0 -27 24 -32 20
-33 -21 l-1 -38 -12 34 c-16 46 -29 48 -44 8z"/>
<path d="M314 695 c-7 -18 3 -35 22 -35 8 0 13 -4 9 -10 -3 -5 -12 -7 -20 -3
-8 3 -15 0 -15 -6 0 -6 11 -11 25 -11 14 0 25 5 25 12 0 9 3 9 12 0 16 -16 45
-15 51 1 4 10 6 10 6 0 2 -23 21 -14 22 10 l0 22 16 -22 c19 -27 33 -30 33 -5
1 16 1 16 11 0 16 -28 79 -18 79 13 0 11 -39 18 -46 8 -3 -5 3 -9 12 -9 14 0
15 -3 6 -12 -9 -9 -16 -9 -28 4 -21 21 -8 41 23 35 15 -3 22 0 20 7 -6 19 -37
19 -58 0 -17 -16 -19 -16 -19 -1 0 10 -5 17 -11 17 -6 0 -9 -9 -6 -20 6 -24
-2 -26 -18 -3 -7 9 -22 18 -34 20 -17 2 -21 -2 -21 -26 0 -17 -4 -33 -10 -36
-6 -4 -10 8 -10 29 0 20 -4 36 -10 36 -5 0 -10 -11 -10 -25 0 -24 -2 -25 -22
-13 -20 11 -21 13 -5 16 9 2 15 8 12 13 -9 14 -35 11 -41 -6z"/>
<path d="M150 604 c0 -19 24 -84 31 -84 5 0 12 12 15 26 l7 27 12 -29 c12 -31
20 -25 35 26 11 38 -1 48 -16 13 -11 -25 -12 -26 -13 -6 -1 30 -21 40 -28 14
-6 -24 -23 -29 -23 -7 0 8 -4 18 -10 21 -5 3 -10 3 -10 -1z"/>
<path d="M151 481 c-6 -11 -8 -27 -5 -35 7 -18 47 -31 63 -21 20 12 11 25 -13
19 -28 -7 -43 11 -26 31 9 11 17 12 32 4 16 -9 19 -8 16 3 -8 22 -55 22 -67
-1z"/>
<path d="M241 469 c-6 -18 -11 -35 -11 -38 0 -3 24 -7 54 -9 39 -2 59 2 70 14
15 14 16 14 16 -1 0 -12 9 -15 35 -13 30 2 35 6 35 26 0 19 3 22 13 13 10 -8
17 -7 25 1 9 9 12 5 12 -17 0 -21 3 -26 11 -18 12 12 3 73 -11 73 -4 0 -11 -8
-15 -17 -6 -16 -8 -16 -18 -3 -7 9 -29 17 -49 18 -31 2 -38 -1 -38 -15 -1 -17
-1 -17 -11 0 -5 9 -21 17 -34 17 -22 0 -25 -5 -26 -37 l0 -38 -16 38 c-19 45
-28 47 -42 6z m105 -18 c-13 -20 -26 -11 -26 16 0 25 1 26 16 11 9 -9 13 -21
10 -27z m74 29 c0 -5 -8 -10 -17 -10 -15 0 -16 2 -3 10 19 12 20 12 20 0z
m-150 -20 c0 -5 -5 -10 -11 -10 -5 0 -7 5 -4 10 3 6 8 10 11 10 2 0 4 -4 4
-10z m147 -16 c-3 -3 -12 -4 -19 -1 -8 3 -5 6 6 6 11 1 17 -2 13 -5z"/>
<path d="M520 481 c5 -11 10 -29 10 -40 0 -12 5 -21 10 -21 6 0 10 10 10 23 0
13 5 28 12 35 6 6 8 15 4 19 -4 4 -12 1 -17 -7 -8 -11 -12 -12 -16 -2 -2 6 -9
12 -14 12 -6 0 -6 -8 1 -19z"/>
<path d="M156 379 c-27 -39 13 -81 52 -54 16 12 21 12 25 2 4 -9 8 -9 15 2 7
9 12 10 16 2 4 -6 10 -11 14 -11 11 0 11 54 0 68 -15 17 -48 15 -48 -4 0 -14
-1 -14 -16 0 -21 22 -40 20 -58 -5z m51 -15 c3 -8 1 -20 -6 -27 -14 -14 -47
15 -37 32 10 16 36 13 43 -5z m63 6 c0 -5 -4 -10 -10 -10 -5 0 -10 5 -10 10 0
6 5 10 10 10 6 0 10 -4 10 -10z"/>
<path d="M159 279 c-18 -18 -19 -23 -6 -42 18 -27 41 -33 59 -13 11 12 15 12
30 -1 25 -22 48 -9 48 28 0 42 23 33 31 -12 4 -25 7 -30 13 -18 4 10 6 25 4
34 -2 10 3 20 10 22 8 3 12 -7 12 -31 0 -20 5 -36 10 -36 6 0 10 9 10 20 0 11
5 20 10 20 6 0 10 -6 10 -14 0 -8 5 -18 10 -21 6 -4 10 10 10 34 0 23 -4 41
-10 41 -5 0 -10 -7 -10 -15 0 -8 -4 -15 -10 -15 -5 0 -10 7 -10 15 0 12 -13
15 -55 15 -54 0 -55 0 -55 -30 0 -16 -4 -30 -10 -30 -5 0 -10 14 -10 30 0 17
-4 30 -10 30 -5 0 -10 -5 -10 -12 0 -6 -7 -4 -18 5 -24 22 -28 21 -53 -4z m49
-22 c4 -21 -25 -34 -40 -19 -8 8 -8 16 2 27 16 19 34 15 38 -8z"/>
</g>
</svg>
